-
 
http://www.Speed. Cd       the fast  and The Hottest Private Tracker on the net 
http://www.Speed. Cd

Please Seed back to make the speed Faster!!
 ............ NFO .............
-
 
http://www.Speed. Cd##     ## #### ##     ## ########          ######  ##     ##  #######  
##     ##  ##  ##     ## ##               ##    ## ###   ### ##     ## 
##     ##  ##  ##     ## ##               ##       #### #### ##     ## 
#########  ##  ##     ## ######   ####### ##       ## ### ##  #######  
##     ##  ##   ##   ##  ##               ##       ##     ## ##     ## 
##     ##  ##    ## ##   ##               ##    ## ##     ## ##     ## 
##     ## ####    ###    ########          ######  ##     ##  #######  

###########  Thx Hive - CM8 Doing It Right The First Time  ###########


[IMG]http://img507.imageshack.us/img507/5804/lionq.jpg[/IMG]


Richard.The.Lionheart.2013.DVDRip.XVID.AC3.HQ.Hive-CM8


Source: DVD-R PAL

Video.: 720x304 @bitrate 1400 2pass
Audio.: English AC3 5.1 @448
Sample: Yes, included


IMDb..: http://www.imdb.com/title/tt1381404/


ENCODE
got this nice dvd, hasnt been done yet, 
movie is perhaps not for everyone, suggest you check trailer first.
quality was ok, first 5 mins of the movie are historical and have a
weird aspect, same as on dvd. brightness and colours moved around in
the movie so left it untouched, only added sharpness and denoise.
lowered bitrate to get a reasonable size.
still got nice
enjoy


General
Complete name                  : Richard.The.Lionheart.2013.DVDRip.XVID.AC3.HQ.Hive-CM8.avi
Format                         : AVI
Format/Info                    : Audio Video Interleave
File size                      : 1.30 GiB
Duration                       : 1h 39mn
Overall bit rate               : 1 857 Kbps
Writing application            : Nandub v1.0rc2
Writing library                : Nandub build 1853/release

Video
ID                             : 0
Format                         : MPEG-4 Visual
Format profile                 : Advanced Simple@L5
Format settings, BVOP          : 2
Format settings, QPel          : Yes
Format settings, GMC           : No warppoints
Format settings, Matrix        : Default (H.263)
Muxing mode                    : Packed bitstream
Codec ID                       : XVID
Codec ID/Hint                  : XviD
Duration                       : 1h 39mn
Bit rate                       : 1 400 Kbps
Width                          : 720 pixels
Height                         : 304 pixels
Display aspect ratio           : 2.35:1
Frame rate                     : 25.000 fps
Color space                    : YUV
Chroma subsampling             : 4:2:0
Bit depth                      : 8 bits
Scan type                      : Progressive
Compression mode               : Lossy
Bits/(Pixel*Frame)             : 0.256
Stream size                    : 1 001 MiB (75%)
Writing library                : XviD 1.2.1 (UTC 2008-12-04)

Audio
ID                             : 1
Format                         : AC-3
Format/Info                    : Audio Coding 3
Mode extension                 : CM (complete main)
Format settings, Endianness    : Big
Codec ID                       : 2000
Duration                       : 1h 39mn
Bit rate mode                  : Constant
Bit rate                       : 448 Kbps
Channel(s)                     : 6 channels
Channel positions              : Front: L C R, Side: L R, LFE
Sampling rate                  : 48.0 KHz
Bit depth                      : 16 bits
Compression mode               : Lossy
Stream size                    : 320 MiB (24%)
Alignment                      : Split accross interleaves
Interleave, duration           : 40 ms (1.00 video frame)
Interleave, preload duration   : 500 ms


PLOT
King Henry II tests the loyalty and honor of his son Richard sending him
to a secret castle known as the Knight's Martyr. There, the Prince must
fight against adversaries representing the virtues of a knight.


CAST
Malcolm McDowell   ...    King Henry II
Stewart Arnold     ...    Selector
Veronica Calilli   ...    Celtic Goddess


[img]http://img571.imageshack.us/img571/3175/rirrii.png[/img]
[img]http://img195.imageshack.us/img195/3833/rirriiri.png[/img]
[img]http://img21.imageshack.us/img21/8420/rirriiriri.png[/img]
[img]http://img708.imageshack.us/img708/3632/rirriiririri.png[/img]
[img]http://img51.imageshack.us/img51/2724/93559691.png[/img]



MANY THANKS
stallone (jase)

GREETZ
ViSiON,SPK,SceneLovers,PRESTiGE,SANTi,3LT0N,YanKeeS,COPYxRIGHT,THC,T0XiC
D2U,LKRG,ADTRG,Feel-Free,KoDeKinG,FLAWL3SS,WBZ,BHRG,26K,NOVA,MAGNET
Unevano,BigVik,Rapeseed,SAFC,goldadvance,KaN1vE,Pinnz,Wayne,TED
SeeN,jtr,Limey,ICONiK,4PlayHD,THEDEN-RG,eXceSs,AKS74u,HiGH
Mr Hive,trepario,stallone,and most P2P groups
Great Work Guys!

LOOKING FOR ANYTHING YOU WANT TO LOOK AND SOUND BETTER

CM8@hushmail.com